<!DOCTYPE svg PUBLIC "-//W3C//DTD SVG 1.1//EN" "http://www.w3.org/Graphics/SVG/1.1/DTD/svg11.dtd">
<!-- Uploaded to: SVG Repo, www.svgrepo.com, Transformed by: SVG Repo Mixer Tools -->
<svg version="1.1" id="Layer_1" xmlns="http://www.w3.org/2000/svg" xmlns:xlink="http://www.w3.org/1999/xlink" viewBox="0 0 512 512" xml:space="preserve" width="800px" height="800px" fill="#000000">
<g id="SVGRepo_bgCarrier" stroke-width="0"/>
<g id="SVGRepo_tracerCarrier" stroke-linecap="round" stroke-linejoin="round"/>
<g id="SVGRepo_iconCarrier"> <path style="fill:#046637;" d="M409.799,23.471c-31.294-31.294-82.031-31.294-113.325,0L256,63.945l-40.474-40.474 c-31.294-31.294-82.032-31.294-113.325,0s-31.294,82.031,0,113.325L256,290.595l153.799-153.799 C441.092,105.503,441.092,54.765,409.799,23.471z"/> <path style="fill:#046637;" d="M409.799,23.471c-31.294-31.294-82.031-31.293-113.325,0L256,63.945l0,0v226.65l0,0l153.799-153.799 C441.092,105.503,441.092,54.765,409.799,23.471z"/> <polygon style="fill:#046637;" points="394.379,512 117.622,512 103.784,415.135 408.216,415.135 "/> <polygon style="fill:#046637;" points="326.028,153.055 296.675,123.702 256,164.376 215.325,123.702 185.972,153.055 235.243,202.328 235.243,359.784 276.757,359.784 276.757,202.328 "/> <polygon style="fill:#046637;" points="256,415.135 256,512 394.379,512 408.216,415.135 "/> <rect x="76.108" y="345.946" style="fill:#046637;" width="359.784" height="83.027"/> <rect x="256" y="345.946" style="fill:#046637;" width="179.892" height="83.027"/> </g>
</svg>